<?xml version="1.0" encoding="UTF-8" standalone="no"?>
<!DOCTYPE svg PUBLIC "-//W3C//DTD SVG 1.1//EN"
 "http://www.w3.org/Graphics/SVG/1.1/DTD/svg11.dtd">
<!-- Generated by graphviz version 10.0.1 (20240210.2158)
 -->
<!-- Pages: 1 -->
<svg width="1444pt" height="100pt"
 viewBox="0.00 0.00 1444.40 100.00" xmlns="http://www.w3.org/2000/svg" xmlns:xlink="http://www.w3.org/1999/xlink">
<g id="graph0" class="graph" transform="scale(1 1) rotate(0) translate(4 96)">
<polygon fill="white" stroke="none" points="-4,4 -4,-96 1440.4,-96 1440.4,4 -4,4"/>
<!-- 2029909023232 -->
<g id="node1" class="node">
<title>2029909023232</title>
<polygon fill="none" stroke="black" points="804.65,-0.5 804.65,-36.5 1111.9,-36.5 1111.9,-0.5 804.65,-0.5"/>
<text text-anchor="middle" x="856.15" y="-13.2" font-family="Times New Roman,serif" font-size="14.00">data [[ 1.] [&#45;0.]]</text>
<polyline fill="none" stroke="black" points="907.65,-0.75 907.65,-36.5"/>
<text text-anchor="middle" x="1009.78" y="-13.2" font-family="Times New Roman,serif" font-size="14.00">grad [[0.23550571] [0.06653115]]</text>
</g>
<!-- 2029909056192@ -->
<g id="node7" class="node">
<title>2029909056192@</title>
<ellipse fill="none" stroke="black" cx="1174.9" cy="-45.5" rx="27" ry="18"/>
<text text-anchor="middle" x="1174.9" y="-40.08" font-family="Times New Roman,serif" font-size="14.00">@</text>
</g>
<!-- 2029909023232&#45;&gt;2029909056192@ -->
<g id="edge6" class="edge">
<title>2029909023232&#45;&gt;2029909056192@</title>
<path fill="none" stroke="black" d="M1106.29,-36.99C1117.31,-38.38 1127.69,-39.69 1136.85,-40.84"/>
<polygon fill="black" stroke="black" points="1136.27,-44.29 1146.63,-42.07 1137.15,-37.35 1136.27,-44.29"/>
</g>
<!-- 2029909023232T -->
<g id="node2" class="node">
<title>2029909023232T</title>
<ellipse fill="none" stroke="black" cx="735.55" cy="-18.5" rx="27" ry="18"/>
<text text-anchor="middle" x="735.55" y="-13.07" font-family="Times New Roman,serif" font-size="14.00">T</text>
</g>
<!-- 2029909023232T&#45;&gt;2029909023232 -->
<g id="edge1" class="edge">
<title>2029909023232T&#45;&gt;2029909023232</title>
<path fill="none" stroke="black" d="M762.74,-18.5C771.39,-18.5 781.74,-18.5 793.11,-18.5"/>
<polygon fill="black" stroke="black" points="792.77,-22 802.77,-18.5 792.77,-15 792.77,-22"/>
</g>
<!-- 2029892207664 -->
<g id="node3" class="node">
<title>2029892207664</title>
<polygon fill="none" stroke="black" points="0,-0.5 0,-36.5 239,-36.5 239,-0.5 0,-0.5"/>
<text text-anchor="middle" x="47" y="-13.2" font-family="Times New Roman,serif" font-size="14.00">data [[ 1. &#45;2.]]</text>
<polyline fill="none" stroke="black" points="94,-0.75 94,-36.5"/>
<text text-anchor="middle" x="166.5" y="-13.2" font-family="Times New Roman,serif" font-size="14.00">grad [[0.23550571 0. ]]</text>
</g>
<!-- 2029909023520ReLU -->
<g id="node9" class="node">
<title>2029909023520ReLU</title>
<ellipse fill="none" stroke="black" cx="308.1" cy="-18.5" rx="33.1" ry="18"/>
<text text-anchor="middle" x="308.1" y="-13.07" font-family="Times New Roman,serif" font-size="14.00">ReLU</text>
</g>
<!-- 2029892207664&#45;&gt;2029909023520ReLU -->
<g id="edge9" class="edge">
<title>2029892207664&#45;&gt;2029909023520ReLU</title>
<path fill="none" stroke="black" d="M239.47,-18.5C247.74,-18.5 255.72,-18.5 263.12,-18.5"/>
<polygon fill="black" stroke="black" points="263.08,-22 273.08,-18.5 263.08,-15 263.08,-22"/>
</g>
<!-- 2029909023856 -->
<g id="node4" class="node">
<title>2029909023856</title>
<polygon fill="none" stroke="black" points="817.78,-55.5 817.78,-91.5 1098.78,-91.5 1098.78,-55.5 817.78,-55.5"/>
<text text-anchor="middle" x="914.65" y="-68.2" font-family="Times New Roman,serif" font-size="14.00">data [[0.23550571 0.06653115]]</text>
<polyline fill="none" stroke="black" points="1011.53,-55.75 1011.53,-91.5"/>
<text text-anchor="middle" x="1055.15" y="-68.2" font-family="Times New Roman,serif" font-size="14.00">grad [[1. 0.]]</text>
</g>
<!-- 2029909023856&#45;&gt;2029909056192@ -->
<g id="edge7" class="edge">
<title>2029909023856&#45;&gt;2029909056192@</title>
<path fill="none" stroke="black" d="M1099.14,-55.25C1112.73,-53.48 1125.56,-51.81 1136.62,-50.36"/>
<polygon fill="black" stroke="black" points="1136.92,-53.85 1146.39,-49.09 1136.02,-46.91 1136.92,-53.85"/>
</g>
<!-- 2029909023856ReLU -->
<g id="node5" class="node">
<title>2029909023856ReLU</title>
<ellipse fill="none" stroke="black" cx="735.55" cy="-73.5" rx="33.1" ry="18"/>
<text text-anchor="middle" x="735.55" y="-68.08" font-family="Times New Roman,serif" font-size="14.00">ReLU</text>
</g>
<!-- 2029909023856ReLU&#45;&gt;2029909023856 -->
<g id="edge2" class="edge">
<title>2029909023856ReLU&#45;&gt;2029909023856</title>
<path fill="none" stroke="black" d="M769.12,-73.5C779.91,-73.5 792.71,-73.5 806.49,-73.5"/>
<polygon fill="black" stroke="black" points="806.22,-77 816.22,-73.5 806.22,-70 806.22,-77"/>
</g>
<!-- 2029909056192 -->
<g id="node6" class="node">
<title>2029909056192</title>
<polygon fill="none" stroke="black" points="1237.9,-27.5 1237.9,-63.5 1436.4,-63.5 1436.4,-27.5 1237.9,-27.5"/>
<text text-anchor="middle" x="1300.65" y="-40.2" font-family="Times New Roman,serif" font-size="14.00">data [[0.23550571]]</text>
<polyline fill="none" stroke="black" points="1363.4,-27.75 1363.4,-63.5"/>
<text text-anchor="middle" x="1399.9" y="-40.2" font-family="Times New Roman,serif" font-size="14.00">grad [[1.]]</text>
</g>
<!-- 2029909056192@&#45;&gt;2029909056192 -->
<g id="edge3" class="edge">
<title>2029909056192@&#45;&gt;2029909056192</title>
<path fill="none" stroke="black" d="M1202.36,-45.5C1209.49,-45.5 1217.66,-45.5 1226.38,-45.5"/>
<polygon fill="black" stroke="black" points="1226.16,-49 1236.16,-45.5 1226.16,-42 1226.16,-49"/>
</g>
<!-- 2029909023520 -->
<g id="node8" class="node">
<title>2029909023520</title>
<polygon fill="none" stroke="black" points="377.2,-0.5 377.2,-36.5 666.45,-36.5 666.45,-0.5 377.2,-0.5"/>
<text text-anchor="middle" x="424.2" y="-13.2" font-family="Times New Roman,serif" font-size="14.00">data [[ 1. &#45;0.]]</text>
<polyline fill="none" stroke="black" points="471.2,-0.75 471.2,-36.5"/>
<text text-anchor="middle" x="568.83" y="-13.2" font-family="Times New Roman,serif" font-size="14.00">grad [[0.23550571 0.06653115]]</text>
</g>
<!-- 2029909023520&#45;&gt;2029909023232T -->
<g id="edge8" class="edge">
<title>2029909023520&#45;&gt;2029909023232T</title>
<path fill="none" stroke="black" d="M666.69,-18.5C677.62,-18.5 687.93,-18.5 697.06,-18.5"/>
<polygon fill="black" stroke="black" points="696.81,-22 706.81,-18.5 696.81,-15 696.81,-22"/>
</g>
<!-- 2029909023520ReLU&#45;&gt;2029909023520 -->
<g id="edge4" class="edge">
<title>2029909023520ReLU&#45;&gt;2029909023520</title>
<path fill="none" stroke="black" d="M341.26,-18.5C348.5,-18.5 356.65,-18.5 365.38,-18.5"/>
<polygon fill="black" stroke="black" points="365.22,-22 375.22,-18.5 365.22,-15 365.22,-22"/>
</g>
<!-- 2029891758544 -->
<g id="node10" class="node">
<title>2029891758544</title>
<polygon fill="none" stroke="black" points="381.33,-55.5 381.33,-91.5 662.33,-91.5 662.33,-55.5 381.33,-55.5"/>
<text text-anchor="middle" x="478.2" y="-68.2" font-family="Times New Roman,serif" font-size="14.00">data [[0.23550571 0.06653115]]</text>
<polyline fill="none" stroke="black" points="575.08,-55.75 575.08,-91.5"/>
<text text-anchor="middle" x="618.7" y="-68.2" font-family="Times New Roman,serif" font-size="14.00">grad [[1. 0.]]</text>
</g>
<!-- 2029891758544&#45;&gt;2029909023856ReLU -->
<g id="edge5" class="edge">
<title>2029891758544&#45;&gt;2029909023856ReLU</title>
<path fill="none" stroke="black" d="M662.57,-73.5C672.55,-73.5 682.07,-73.5 690.74,-73.5"/>
<polygon fill="black" stroke="black" points="690.47,-77 700.47,-73.5 690.47,-70 690.47,-77"/>
</g>
</g>
</svg>
