<?xml version="1.0" encoding="UTF-8" standalone="no"?>
<!DOCTYPE svg PUBLIC "-//W3C//DTD SVG 1.1//EN"
 "http://www.w3.org/Graphics/SVG/1.1/DTD/svg11.dtd">
<!-- Generated by graphviz version 2.43.0 (0)
 -->
<!-- Title: %3 Pages: 1 -->
<svg width="963pt" height="100pt"
 viewBox="0.00 0.00 962.59 100.00" xmlns="http://www.w3.org/2000/svg" xmlns:xlink="http://www.w3.org/1999/xlink">
<g id="graph0" class="graph" transform="scale(1 1) rotate(0) translate(4 96)">
<title>%3</title>
<polygon fill="white" stroke="transparent" points="-4,4 -4,-96 958.59,-96 958.59,4 -4,4"/>
<!-- 132509774640896 -->
<g id="node1" class="node">
<title>132509774640896</title>
<polygon fill="none" stroke="black" points="297.79,-0.5 297.79,-36.5 463.79,-36.5 463.79,-0.5 297.79,-0.5"/>
<text text-anchor="middle" x="339.29" y="-14.8" font-family="Times,serif" font-size="14.00">[0.24+0.j</text>
<polyline fill="none" stroke="black" points="380.79,-0.5 380.79,-36.5 "/>
<text text-anchor="middle" x="422.29" y="-14.8" font-family="Times,serif" font-size="14.00">0.07+0.j]</text>
</g>
<!-- 132509774774080T -->
<g id="node5" class="node">
<title>132509774774080T</title>
<ellipse fill="none" stroke="black" cx="536.19" cy="-18.5" rx="27" ry="18"/>
<text text-anchor="middle" x="536.19" y="-14.8" font-family="Times,serif" font-size="14.00">T</text>
</g>
<!-- 132509774640896&#45;&gt;132509774774080T -->
<g id="edge9" class="edge">
<title>132509774640896&#45;&gt;132509774774080T</title>
<path fill="none" stroke="black" d="M463.88,-18.5C476.17,-18.5 488.27,-18.5 498.92,-18.5"/>
<polygon fill="black" stroke="black" points="499.03,-22 509.03,-18.5 499.03,-15 499.03,-22"/>
</g>
<!-- 132509774640896ReLU -->
<g id="node2" class="node">
<title>132509774640896ReLU</title>
<ellipse fill="none" stroke="black" cx="225.4" cy="-18.5" rx="36.29" ry="18"/>
<text text-anchor="middle" x="225.4" y="-14.8" font-family="Times,serif" font-size="14.00">ReLU</text>
</g>
<!-- 132509774640896ReLU&#45;&gt;132509774640896 -->
<g id="edge1" class="edge">
<title>132509774640896ReLU&#45;&gt;132509774640896</title>
<path fill="none" stroke="black" d="M261.97,-18.5C269.82,-18.5 278.48,-18.5 287.44,-18.5"/>
<polygon fill="black" stroke="black" points="287.65,-22 297.65,-18.5 287.65,-15 287.65,-22"/>
</g>
<!-- 132509774628128 -->
<g id="node3" class="node">
<title>132509774628128</title>
<polygon fill="none" stroke="black" points="0,-0.5 0,-36.5 153,-36.5 153,-0.5 0,-0.5"/>
<text text-anchor="middle" x="41.5" y="-14.8" font-family="Times,serif" font-size="14.00">[0.24+0.j</text>
<polyline fill="none" stroke="black" points="83,-0.5 83,-36.5 "/>
<text text-anchor="middle" x="118" y="-14.8" font-family="Times,serif" font-size="14.00">0. +0.j]</text>
</g>
<!-- 132509774628128&#45;&gt;132509774640896ReLU -->
<g id="edge7" class="edge">
<title>132509774628128&#45;&gt;132509774640896ReLU</title>
<path fill="none" stroke="black" d="M153.1,-18.5C161.9,-18.5 170.66,-18.5 178.87,-18.5"/>
<polygon fill="black" stroke="black" points="178.94,-22 188.94,-18.5 178.94,-15 178.94,-22"/>
</g>
<!-- 132509774774080 -->
<g id="node4" class="node">
<title>132509774774080</title>
<polygon fill="none" stroke="black" points="608.59,-0.5 608.59,-36.5 774.59,-36.5 774.59,-0.5 608.59,-0.5"/>
<text text-anchor="middle" x="650.09" y="-14.8" font-family="Times,serif" font-size="14.00">[0.24+0.j</text>
<polyline fill="none" stroke="black" points="691.59,-0.5 691.59,-36.5 "/>
<text text-anchor="middle" x="733.09" y="-14.8" font-family="Times,serif" font-size="14.00">0.07+0.j]</text>
</g>
<!-- 132509774774176@ -->
<g id="node9" class="node">
<title>132509774774176@</title>
<ellipse fill="none" stroke="black" cx="837.59" cy="-45.5" rx="27" ry="18"/>
<text text-anchor="middle" x="837.59" y="-41.8" font-family="Times,serif" font-size="14.00">@</text>
</g>
<!-- 132509774774080&#45;&gt;132509774774176@ -->
<g id="edge8" class="edge">
<title>132509774774080&#45;&gt;132509774774176@</title>
<path fill="none" stroke="black" d="M774.68,-33.89C784.01,-35.64 793.1,-37.35 801.33,-38.89"/>
<polygon fill="black" stroke="black" points="800.75,-42.34 811.23,-40.74 802.04,-35.46 800.75,-42.34"/>
</g>
<!-- 132509774774080T&#45;&gt;132509774774080 -->
<g id="edge2" class="edge">
<title>132509774774080T&#45;&gt;132509774774080</title>
<path fill="none" stroke="black" d="M563.21,-18.5C573.26,-18.5 585.41,-18.5 598.17,-18.5"/>
<polygon fill="black" stroke="black" points="598.5,-22 608.5,-18.5 598.5,-15 598.5,-22"/>
</g>
<!-- 132509774634848 -->
<g id="node6" class="node">
<title>132509774634848</title>
<polygon fill="none" stroke="black" points="626.59,-55.5 626.59,-91.5 756.59,-91.5 756.59,-55.5 626.59,-55.5"/>
<text text-anchor="middle" x="659.09" y="-69.8" font-family="Times,serif" font-size="14.00">[1.+0.j</text>
<polyline fill="none" stroke="black" points="691.59,-55.5 691.59,-91.5 "/>
<text text-anchor="middle" x="724.09" y="-69.8" font-family="Times,serif" font-size="14.00">0.+0.j]</text>
</g>
<!-- 132509774634848&#45;&gt;132509774774176@ -->
<g id="edge6" class="edge">
<title>132509774634848&#45;&gt;132509774774176@</title>
<path fill="none" stroke="black" d="M757.01,-60.97C772.25,-58.01 787.95,-54.96 801.34,-52.35"/>
<polygon fill="black" stroke="black" points="802.38,-55.72 811.53,-50.37 801.04,-48.85 802.38,-55.72"/>
</g>
<!-- 132509774634848ReLU -->
<g id="node7" class="node">
<title>132509774634848ReLU</title>
<ellipse fill="none" stroke="black" cx="536.19" cy="-73.5" rx="36.29" ry="18"/>
<text text-anchor="middle" x="536.19" y="-69.8" font-family="Times,serif" font-size="14.00">ReLU</text>
</g>
<!-- 132509774634848ReLU&#45;&gt;132509774634848 -->
<g id="edge3" class="edge">
<title>132509774634848ReLU&#45;&gt;132509774634848</title>
<path fill="none" stroke="black" d="M572.77,-73.5C585.71,-73.5 600.87,-73.5 615.93,-73.5"/>
<polygon fill="black" stroke="black" points="616.31,-77 626.31,-73.5 616.31,-70 616.31,-77"/>
</g>
<!-- 132509774774176 -->
<g id="node8" class="node">
<title>132509774774176</title>
<polygon fill="none" stroke="black" points="900.59,-27.5 900.59,-63.5 954.59,-63.5 954.59,-27.5 900.59,-27.5"/>
<text text-anchor="middle" x="927.59" y="-41.8" font-family="Times,serif" font-size="14.00">[1.]</text>
</g>
<!-- 132509774774176@&#45;&gt;132509774774176 -->
<g id="edge4" class="edge">
<title>132509774774176@&#45;&gt;132509774774176</title>
<path fill="none" stroke="black" d="M864.99,-45.5C872.98,-45.5 881.9,-45.5 890.41,-45.5"/>
<polygon fill="black" stroke="black" points="890.51,-49 900.51,-45.5 890.51,-42 890.51,-49"/>
</g>
<!-- 132509774640032 -->
<g id="node10" class="node">
<title>132509774640032</title>
<polygon fill="none" stroke="black" points="315.79,-55.5 315.79,-91.5 445.79,-91.5 445.79,-55.5 315.79,-55.5"/>
<text text-anchor="middle" x="348.29" y="-69.8" font-family="Times,serif" font-size="14.00">[1.+0.j</text>
<polyline fill="none" stroke="black" points="380.79,-55.5 380.79,-91.5 "/>
<text text-anchor="middle" x="413.29" y="-69.8" font-family="Times,serif" font-size="14.00">0.+0.j]</text>
</g>
<!-- 132509774640032&#45;&gt;132509774634848ReLU -->
<g id="edge5" class="edge">
<title>132509774640032&#45;&gt;132509774634848ReLU</title>
<path fill="none" stroke="black" d="M445.96,-73.5C460.61,-73.5 475.9,-73.5 489.59,-73.5"/>
<polygon fill="black" stroke="black" points="489.71,-77 499.71,-73.5 489.71,-70 489.71,-77"/>
</g>
</g>
</svg>
